<svg width="16" height="16" viewBox="0 0 16 16" fill="none" xmlns="http://www.w3.org/2000/svg">
<path d="M11.9998 9.33341V2.66675V9.33341Z" fill="#1F2A37"/>
<path d="M7.99984 4.00008V2.66675M7.99984 4.00008C7.64621 4.00008 7.30708 4.14056 7.05703 4.39061C6.80698 4.64065 6.6665 4.97979 6.6665 5.33341C6.6665 5.68704 6.80698 6.02617 7.05703 6.27622C7.30708 6.52627 7.64621 6.66675 7.99984 6.66675M7.99984 4.00008C8.35346 4.00008 8.6926 4.14056 8.94265 4.39061C9.19269 4.64065 9.33317 4.97979 9.33317 5.33341C9.33317 5.68704 9.19269 6.02617 8.94265 6.27622C8.6926 6.52627 8.35346 6.66675 7.99984 6.66675M7.99984 6.66675V13.3334M3.99984 12.0001C4.35346 12.0001 4.6926 11.8596 4.94265 11.6096C5.19269 11.3595 5.33317 11.0204 5.33317 10.6667C5.33317 10.3131 5.19269 9.97399 4.94265 9.72394C4.6926 9.47389 4.35346 9.33341 3.99984 9.33341M3.99984 12.0001C3.64622 12.0001 3.30708 11.8596 3.05703 11.6096C2.80698 11.3595 2.6665 11.0204 2.6665 10.6667C2.6665 10.3131 2.80698 9.97399 3.05703 9.72394C3.30708 9.47389 3.64622 9.33341 3.99984 9.33341M3.99984 12.0001V13.3334M3.99984 9.33341V2.66675M11.9998 12.0001C12.3535 12.0001 12.6926 11.8596 12.9426 11.6096C13.1927 11.3595 13.3332 11.0204 13.3332 10.6667C13.3332 10.3131 13.1927 9.97399 12.9426 9.72394C12.6926 9.47389 12.3535 9.33341 11.9998 9.33341M11.9998 12.0001C11.6462 12.0001 11.3071 11.8596 11.057 11.6096C10.807 11.3595 10.6665 11.0204 10.6665 10.6667C10.6665 10.3131 10.807 9.97399 11.057 9.72394C11.3071 9.47389 11.6462 9.33341 11.9998 9.33341M11.9998 12.0001V13.3334M11.9998 9.33341V2.66675" stroke="#111928" stroke-width="2" stroke-linecap="round" stroke-linejoin="round"/>
</svg>
