<svg width="47" height="23" viewBox="0 0 47 23" fill="none" xmlns="http://www.w3.org/2000/svg">
<rect x="0.189651" y="0.397949" width="46.0655" height="22.1122" rx="4.25234" fill="#30BE82" fill-opacity="0.1"/>
<path d="M10.5926 14.6433L13.5998 14.6433C14.9125 14.6433 15.7305 13.2193 15.069 12.0853L13.5654 9.50778C12.9091 8.3826 11.2833 8.3826 10.627 9.50778L9.12341 12.0853C8.46195 13.2193 9.27988 14.6433 10.5926 14.6433Z" fill="#30BE82"/>
<path d="M27.099 7.65035V14.4541H26.2751V8.51411H26.2353L24.5742 9.61706V8.77988L26.2751 7.65035H27.099ZM29.0558 14.4541V13.8561L31.3015 11.3977C31.5651 11.1098 31.7821 10.8595 31.9527 10.6469C32.1232 10.4321 32.2494 10.2306 32.3314 10.0423C32.4156 9.85183 32.4576 9.6525 32.4576 9.44431C32.4576 9.20512 32.4 8.99804 32.2849 8.82307C32.1719 8.6481 32.0169 8.513 31.8198 8.41777C31.6227 8.32253 31.4012 8.27492 31.1554 8.27492C30.894 8.27492 30.6659 8.32918 30.471 8.4377C30.2783 8.54401 30.1288 8.69351 30.0225 8.88619C29.9184 9.07887 29.8664 9.30478 29.8664 9.56391H29.0823C29.0823 9.16525 29.1742 8.81532 29.3581 8.51411C29.5419 8.2129 29.7922 7.97814 30.1089 7.80982C30.4278 7.64149 30.7855 7.55733 31.1819 7.55733C31.5806 7.55733 31.9338 7.64149 32.2417 7.80982C32.5495 7.97814 32.791 8.20515 32.9659 8.49086C33.1409 8.77656 33.2284 9.09438 33.2284 9.44431C33.2284 9.69458 33.183 9.93931 33.0922 10.1785C33.0036 10.4155 32.8485 10.6801 32.6271 10.9725C32.4078 11.2626 32.1033 11.617 31.7135 12.0356L30.1853 13.6701V13.7232H33.348V14.4541H29.0558ZM38.1883 13.1784V12.8196C38.1883 12.5716 38.2393 12.3445 38.3411 12.1386C38.4452 11.9304 38.5958 11.7643 38.793 11.6402C38.9923 11.514 39.2337 11.4509 39.5172 11.4509C39.8051 11.4509 40.0465 11.514 40.2414 11.6402C40.4363 11.7643 40.5836 11.9304 40.6833 12.1386C40.7829 12.3445 40.8328 12.5716 40.8328 12.8196V13.1784C40.8328 13.4265 40.7818 13.6546 40.6799 13.8628C40.5803 14.0687 40.4319 14.2348 40.2348 14.3611C40.0399 14.4851 39.8007 14.5471 39.5172 14.5471C39.2293 14.5471 38.9867 14.4851 38.7896 14.3611C38.5925 14.2348 38.443 14.0687 38.3411 13.8628C38.2393 13.6546 38.1883 13.4265 38.1883 13.1784ZM38.866 12.8196V13.1784C38.866 13.3844 38.9148 13.5693 39.0122 13.7332C39.1097 13.8949 39.278 13.9757 39.5172 13.9757C39.7497 13.9757 39.9136 13.8949 40.0089 13.7332C40.1063 13.5693 40.155 13.3844 40.155 13.1784V12.8196C40.155 12.6136 40.1085 12.4298 40.0155 12.2681C39.9225 12.1042 39.7564 12.0223 39.5172 12.0223C39.2846 12.0223 39.1174 12.1042 39.0155 12.2681C38.9159 12.4298 38.866 12.6136 38.866 12.8196ZM34.7997 9.28485V8.92606C34.7997 8.678 34.8507 8.45099 34.9526 8.24502C35.0567 8.03683 35.2073 7.87072 35.4044 7.7467C35.6037 7.62045 35.8451 7.55733 36.1286 7.55733C36.4165 7.55733 36.6579 7.62045 36.8528 7.7467C37.0477 7.87072 37.195 8.03683 37.2947 8.24502C37.3943 8.45099 37.4442 8.678 37.4442 8.92606V9.28485C37.4442 9.5329 37.3932 9.76102 37.2913 9.96921C37.1917 10.1752 37.0433 10.3413 36.8462 10.4675C36.6513 10.5916 36.4121 10.6536 36.1286 10.6536C35.8407 10.6536 35.5982 10.5916 35.401 10.4675C35.2039 10.3413 35.0544 10.1752 34.9526 9.96921C34.8507 9.76102 34.7997 9.5329 34.7997 9.28485ZM35.4775 8.92606V9.28485C35.4775 9.49082 35.5262 9.67575 35.6236 9.83965C35.7211 10.0013 35.8894 10.0822 36.1286 10.0822C36.3611 10.0822 36.525 10.0013 36.6203 9.83965C36.7177 9.67575 36.7664 9.49082 36.7664 9.28485V8.92606C36.7664 8.72008 36.7199 8.53626 36.6269 8.37458C36.5339 8.21069 36.3678 8.12874 36.1286 8.12874C35.896 8.12874 35.7288 8.21069 35.627 8.37458C35.5273 8.53626 35.4775 8.72008 35.4775 8.92606ZM35.0522 14.4541L39.7298 7.65035H40.4872L35.8097 14.4541H35.0522Z" fill="#30BE82"/>
</svg>
