<svg width="43" height="23" viewBox="0 0 43 23" fill="none" xmlns="http://www.w3.org/2000/svg">
<rect x="0.395767" y="0.397949" width="42.0655" height="22.1122" rx="4.25234" fill="#F45B69" fill-opacity="0.1"/>
<path d="M13.8059 7.62695L10.7988 7.62695C9.486 7.62695 8.66807 9.051 9.32953 10.1849L10.8331 12.7625C11.4895 13.8877 13.1152 13.8877 13.7716 12.7625L15.2751 10.1849C15.9366 9.051 15.1187 7.62695 13.8059 7.62695Z" fill="#F45B69"/>
<path d="M27.7267 14.5471C27.2705 14.5471 26.8674 14.4663 26.5174 14.3046C26.1697 14.1407 25.8984 13.9159 25.7035 13.6302C25.5086 13.3423 25.4123 13.0145 25.4145 12.6469C25.4123 12.3589 25.4687 12.0932 25.5839 11.8495C25.6991 11.6037 25.8563 11.3988 26.0557 11.2349C26.2572 11.0688 26.482 10.9636 26.7301 10.9193V10.8795C26.4045 10.7953 26.1454 10.6126 25.9527 10.3313C25.76 10.0478 25.6648 9.72558 25.667 9.36458C25.6648 9.01908 25.7522 8.71012 25.9294 8.4377C26.1066 8.16529 26.3502 7.95045 26.6603 7.79321C26.9726 7.63596 27.328 7.55733 27.7267 7.55733C28.1209 7.55733 28.4731 7.63596 28.7831 7.79321C29.0932 7.95045 29.3368 8.16529 29.514 8.4377C29.6934 8.71012 29.7842 9.01908 29.7864 9.36458C29.7842 9.72558 29.6857 10.0478 29.4908 10.3313C29.2981 10.6126 29.0423 10.7953 28.7233 10.8795V10.9193C28.9692 10.9636 29.1907 11.0688 29.3878 11.2349C29.5849 11.3988 29.7421 11.6037 29.8595 11.8495C29.9769 12.0932 30.0367 12.3589 30.0389 12.6469C30.0367 13.0145 29.937 13.3423 29.7399 13.6302C29.545 13.9159 29.2737 14.1407 28.926 14.3046C28.5805 14.4663 28.1807 14.5471 27.7267 14.5471ZM27.7267 13.8163C28.0345 13.8163 28.3003 13.7664 28.524 13.6668C28.7477 13.5671 28.9205 13.4265 29.0423 13.2448C29.1641 13.0632 29.2261 12.8506 29.2283 12.607C29.2261 12.3501 29.1596 12.1231 29.029 11.926C28.8983 11.7288 28.72 11.5738 28.4941 11.4609C28.2704 11.3479 28.0146 11.2914 27.7267 11.2914C27.4366 11.2914 27.1774 11.3479 26.9493 11.4609C26.7234 11.5738 26.5451 11.7288 26.4144 11.926C26.286 12.1231 26.2229 12.3501 26.2251 12.607C26.2229 12.8506 26.2816 13.0632 26.4012 13.2448C26.523 13.4265 26.6968 13.5671 26.9227 13.6668C27.1486 13.7664 27.4166 13.8163 27.7267 13.8163ZM27.7267 10.5871C27.9703 10.5871 28.1863 10.5384 28.3745 10.441C28.565 10.3435 28.7145 10.2073 28.823 10.0323C28.9315 9.85736 28.9869 9.6525 28.9891 9.41773C28.9869 9.1874 28.9326 8.98696 28.8263 8.81642C28.72 8.64367 28.5727 8.51079 28.3845 8.41777C28.1962 8.32253 27.977 8.27492 27.7267 8.27492C27.472 8.27492 27.2494 8.32253 27.0589 8.41777C26.8685 8.51079 26.7212 8.64367 26.6171 8.81642C26.513 8.98696 26.4621 9.1874 26.4643 9.41773C26.4621 9.6525 26.5141 9.85736 26.6204 10.0323C26.7289 10.2073 26.8784 10.3435 27.0689 10.441C27.2594 10.5384 27.4786 10.5871 27.7267 10.5871ZM34.7804 13.1784V12.8196C34.7804 12.5716 34.8314 12.3445 34.9333 12.1386C35.0373 11.9304 35.188 11.7643 35.3851 11.6402C35.5844 11.514 35.8258 11.4509 36.1093 11.4509C36.3972 11.4509 36.6386 11.514 36.8335 11.6402C37.0284 11.7643 37.1757 11.9304 37.2754 12.1386C37.375 12.3445 37.4249 12.5716 37.4249 12.8196V13.1784C37.4249 13.4265 37.3739 13.6546 37.272 13.8628C37.1724 14.0687 37.024 14.2348 36.8269 14.3611C36.632 14.4851 36.3928 14.5471 36.1093 14.5471C35.8214 14.5471 35.5789 14.4851 35.3817 14.3611C35.1846 14.2348 35.0351 14.0687 34.9333 13.8628C34.8314 13.6546 34.7804 13.4265 34.7804 13.1784ZM35.4582 12.8196V13.1784C35.4582 13.3844 35.5069 13.5693 35.6043 13.7332C35.7018 13.8949 35.8701 13.9757 36.1093 13.9757C36.3418 13.9757 36.5057 13.8949 36.601 13.7332C36.6984 13.5693 36.7471 13.3844 36.7471 13.1784V12.8196C36.7471 12.6136 36.7006 12.4298 36.6076 12.2681C36.5146 12.1042 36.3485 12.0223 36.1093 12.0223C35.8767 12.0223 35.7095 12.1042 35.6076 12.2681C35.508 12.4298 35.4582 12.6136 35.4582 12.8196ZM31.3918 9.28485V8.92606C31.3918 8.678 31.4428 8.45099 31.5447 8.24502C31.6488 8.03683 31.7994 7.87072 31.9965 7.7467C32.1958 7.62045 32.4372 7.55733 32.7207 7.55733C33.0086 7.55733 33.25 7.62045 33.4449 7.7467C33.6398 7.87072 33.7871 8.03683 33.8868 8.24502C33.9864 8.45099 34.0363 8.678 34.0363 8.92606V9.28485C34.0363 9.5329 33.9853 9.76102 33.8835 9.96921C33.7838 10.1752 33.6354 10.3413 33.4383 10.4675C33.2434 10.5916 33.0042 10.6536 32.7207 10.6536C32.4328 10.6536 32.1903 10.5916 31.9932 10.4675C31.796 10.3413 31.6465 10.1752 31.5447 9.96921C31.4428 9.76102 31.3918 9.5329 31.3918 9.28485ZM32.0696 8.92606V9.28485C32.0696 9.49082 32.1183 9.67575 32.2157 9.83965C32.3132 10.0013 32.4815 10.0822 32.7207 10.0822C32.9533 10.0822 33.1171 10.0013 33.2124 9.83965C33.3098 9.67575 33.3586 9.49082 33.3586 9.28485V8.92606C33.3586 8.72008 33.312 8.53626 33.219 8.37458C33.126 8.21069 32.9599 8.12874 32.7207 8.12874C32.4882 8.12874 32.3209 8.21069 32.2191 8.37458C32.1194 8.53626 32.0696 8.72008 32.0696 8.92606ZM31.6443 14.4541L36.3219 7.65035H37.0794L32.4018 14.4541H31.6443Z" fill="#F45B69"/>
</svg>
