<svg width="25" height="25" viewBox="0 0 25 25" fill="none" xmlns="http://www.w3.org/2000/svg">
<path d="M24.3847 11.9721C24.3487 11.8934 23.4974 10.0032 21.617 8.12277C19.101 5.61068 15.93 4.28223 12.4316 4.28223C8.93309 4.28223 5.76211 5.61068 3.24904 8.12277C1.36861 10.0032 0.517312 11.8934 0.47844 11.9721C0.412604 12.1213 0.378601 12.2827 0.378601 12.4458C0.378601 12.609 0.412604 12.7703 0.47844 12.9196C0.514397 12.9993 1.36569 14.8884 3.24709 16.7689C5.76211 19.281 8.93309 20.6084 12.4316 20.6084C15.93 20.6084 19.101 19.281 21.6131 16.7689C23.4945 14.8884 24.3458 12.9993 24.3818 12.9196C24.4481 12.7705 24.4826 12.6093 24.4831 12.4461C24.4836 12.283 24.4501 12.1215 24.3847 11.9721ZM19.9086 15.179C17.8221 17.2334 15.3071 18.2761 12.4316 18.2761C9.55601 18.2761 7.041 17.2334 4.95746 15.178C4.1376 14.3668 3.43236 13.4474 2.86129 12.4453C3.43252 11.4437 4.13775 10.5246 4.95746 9.71361C7.04197 7.65728 9.55601 6.61454 12.4316 6.61454C15.3071 6.61454 17.8212 7.65728 19.9057 9.71361C20.7255 10.5245 21.4307 11.4436 22.0018 12.4453C21.4307 13.4473 20.7254 14.3667 19.9057 15.178L19.9086 15.179ZM12.4316 8.16942C11.5859 8.16942 10.7592 8.4202 10.056 8.89004C9.35282 9.35989 8.80477 10.0277 8.48114 10.809C8.1575 11.5903 8.07282 12.4501 8.23781 13.2795C8.4028 14.109 8.81004 14.8709 9.40804 15.4689C10.006 16.0669 10.7679 16.4741 11.5974 16.6391C12.4268 16.8041 13.2866 16.7194 14.0679 16.3958C14.8492 16.0721 15.517 15.5241 15.9869 14.8209C16.4567 14.1177 16.7075 13.291 16.7075 12.4453C16.7062 11.3117 16.2553 10.2248 15.4537 9.42323C14.6521 8.62162 13.5652 8.17071 12.4316 8.16942ZM12.4316 14.3889C12.0472 14.3889 11.6714 14.2749 11.3518 14.0614C11.0321 13.8478 10.783 13.5443 10.6359 13.1891C10.4888 12.834 10.4503 12.4432 10.5253 12.0662C10.6003 11.6891 10.7854 11.3428 11.0572 11.071C11.3291 10.7992 11.6754 10.6141 12.0524 10.5391C12.4294 10.4641 12.8202 10.5026 13.1753 10.6497C13.5305 10.7968 13.834 11.0459 14.0476 11.3655C14.2612 11.6852 14.3752 12.0609 14.3752 12.4453C14.3752 12.9608 14.1704 13.4552 13.8059 13.8197C13.4414 14.1842 12.947 14.3889 12.4316 14.3889Z" fill="#6E6E91"/>
</svg>
