<svg width="66" height="24" viewBox="0 0 66 24" fill="none" xmlns="http://www.w3.org/2000/svg">
<path d="M5.01057 18.3663C4.31951 18.3663 3.69717 18.2289 3.14354 17.954C2.58991 17.6792 2.14622 17.3023 1.81247 16.8232C1.47872 16.3442 1.29614 15.7984 1.26473 15.1859H2.67825C2.73322 15.7317 2.98059 16.1832 3.42035 16.5405C3.86404 16.8939 4.39411 17.0706 5.01057 17.0706C5.5053 17.0706 5.94507 16.9548 6.32986 16.7231C6.71858 16.4914 7.02288 16.1734 7.24276 15.769C7.46657 15.3606 7.57847 14.8993 7.57847 14.3849C7.57847 13.8588 7.46264 13.3895 7.23098 12.9773C7.00325 12.5611 6.68913 12.2332 6.28863 11.9937C5.88813 11.7542 5.4307 11.6324 4.91633 11.6285C4.54725 11.6246 4.16834 11.6815 3.77962 11.7993C3.3909 11.9132 3.0709 12.0604 2.8196 12.2411L1.4532 12.0761L2.18352 6.13933H8.45015V7.43506H3.40857L2.98452 10.9924H3.05519C3.30256 10.7961 3.61275 10.6332 3.98576 10.5036C4.35878 10.374 4.7475 10.3092 5.15192 10.3092C5.8901 10.3092 6.54778 10.4859 7.12497 10.8393C7.70608 11.1888 8.16155 11.6678 8.49138 12.2764C8.82512 12.885 8.992 13.58 8.992 14.3613C8.992 15.1309 8.81923 15.8181 8.47371 16.4227C8.1321 17.0235 7.66093 17.4986 7.06018 17.848C6.45943 18.1936 5.77623 18.3663 5.01057 18.3663ZM15.3367 18.3663C14.8419 18.3585 14.3472 18.2642 13.8525 18.0836C13.3577 17.903 12.9062 17.5987 12.4978 17.1707C12.0895 16.7388 11.7616 16.1557 11.5143 15.4215C11.2669 14.6833 11.1432 13.7567 11.1432 12.6415C11.1432 11.5736 11.2433 10.6273 11.4436 9.80272C11.6438 8.97424 11.9344 8.27729 12.3153 7.71188C12.6961 7.14254 13.1555 6.71063 13.6934 6.41615C14.2353 6.12166 14.8459 5.97442 15.5251 5.97442C16.2005 5.97442 16.8012 6.10988 17.3274 6.38081C17.8575 6.64781 18.2894 7.02082 18.6231 7.49985C18.9569 7.97888 19.1728 8.53055 19.271 9.15485H17.8339C17.7004 8.613 17.4412 8.16342 17.0565 7.80611C16.6717 7.44881 16.1612 7.27015 15.5251 7.27015C14.5906 7.27015 13.8544 7.67654 13.3165 8.48932C12.7825 9.3021 12.5135 10.4427 12.5096 11.9112H12.6039C12.8237 11.5775 13.0848 11.2928 13.3872 11.0572C13.6934 10.8177 14.0311 10.6332 14.4002 10.5036C14.7693 10.374 15.16 10.3092 15.5723 10.3092C16.2633 10.3092 16.8955 10.482 17.4687 10.8275C18.042 11.1691 18.5014 11.6423 18.8469 12.2469C19.1925 12.8477 19.3652 13.5368 19.3652 14.3142C19.3652 15.0602 19.1983 15.7435 18.8646 16.3638C18.5308 16.9803 18.0616 17.4711 17.457 17.8363C16.8562 18.1975 16.1494 18.3742 15.3367 18.3663ZM15.3367 17.0706C15.8314 17.0706 16.2751 16.9469 16.6677 16.6995C17.0643 16.4522 17.3765 16.1204 17.6042 15.7042C17.8359 15.288 17.9517 14.8247 17.9517 14.3142C17.9517 13.8156 17.8398 13.3621 17.616 12.9537C17.3961 12.5414 17.0918 12.2136 16.7031 11.9701C16.3183 11.7267 15.8785 11.605 15.3838 11.605C15.0108 11.605 14.6633 11.6796 14.3413 11.8288C14.0193 11.9741 13.7366 12.1743 13.4932 12.4295C13.2537 12.6847 13.0652 12.9773 12.9278 13.3071C12.7904 13.633 12.7216 13.9765 12.7216 14.3378C12.7216 14.8168 12.8335 15.2644 13.0574 15.6806C13.2851 16.0968 13.5953 16.4325 13.9879 16.6878C14.3845 16.943 14.8341 17.0706 15.3367 17.0706ZM22.151 18.2957C21.8605 18.2957 21.6111 18.1916 21.403 17.9835C21.1949 17.7754 21.0909 17.5261 21.0909 17.2355C21.0909 16.9449 21.1949 16.6956 21.403 16.4875C21.6111 16.2794 21.8605 16.1754 22.151 16.1754C22.4416 16.1754 22.6909 16.2794 22.899 16.4875C23.1071 16.6956 23.2112 16.9449 23.2112 17.2355C23.2112 17.4279 23.1621 17.6046 23.0639 17.7656C22.9697 17.9266 22.8421 18.0561 22.6811 18.1543C22.5241 18.2485 22.3474 18.2957 22.151 18.2957ZM29.4086 5.97442C29.9033 5.97835 30.3981 6.07258 30.8928 6.25713C31.3875 6.44167 31.8391 6.74793 32.2474 7.17592C32.6558 7.59997 32.9836 8.17913 33.231 8.91338C33.4784 9.64762 33.6021 10.5684 33.6021 11.6756C33.6021 12.7476 33.5 13.6997 33.2958 14.5321C33.0956 15.3606 32.805 16.0595 32.4241 16.6289C32.0472 17.1982 31.5878 17.6301 31.0459 17.9246C30.508 18.2191 29.8994 18.3663 29.2201 18.3663C28.5448 18.3663 27.9421 18.2328 27.412 17.9658C26.8859 17.6949 26.4539 17.3199 26.1163 16.8409C25.7825 16.3579 25.5685 15.7984 25.4743 15.1623H26.9114C27.041 15.716 27.2981 16.1734 27.6829 16.5346C28.0716 16.8919 28.5841 17.0706 29.2201 17.0706C30.1507 17.0706 30.885 16.6642 31.4229 15.8514C31.9647 15.0387 32.2357 13.8902 32.2357 12.406H32.1414C31.9215 12.7358 31.6604 13.0205 31.3581 13.26C31.0558 13.4995 30.72 13.684 30.351 13.8136C29.9819 13.9432 29.5892 14.008 29.173 14.008C28.482 14.008 27.8478 13.8372 27.2707 13.4956C26.6974 13.15 26.238 12.6769 25.8925 12.0761C25.5509 11.4715 25.3801 10.7804 25.3801 10.003C25.3801 9.26479 25.545 8.58944 25.8748 7.97691C26.2085 7.36046 26.6758 6.86965 27.2765 6.50449C27.8812 6.13933 28.5919 5.96264 29.4086 5.97442ZM29.4086 7.27015C28.9139 7.27015 28.4682 7.39384 28.0716 7.6412C27.679 7.88464 27.3668 8.21447 27.1352 8.63067C26.9075 9.04295 26.7936 9.50038 26.7936 10.003C26.7936 10.5056 26.9035 10.963 27.1234 11.3753C27.3472 11.7836 27.6515 12.1095 28.0363 12.353C28.425 12.5925 28.8668 12.7122 29.3615 12.7122C29.7345 12.7122 30.082 12.6396 30.404 12.4943C30.7259 12.3451 31.0067 12.1429 31.2462 11.8877C31.4896 11.6285 31.6801 11.336 31.8175 11.0101C31.9549 10.6803 32.0236 10.3367 32.0236 9.97941C32.0236 9.50823 31.9098 9.06651 31.682 8.65423C31.4582 8.24195 31.148 7.9082 30.7515 7.65298C30.3588 7.39776 29.9112 7.27015 29.4086 7.27015ZM42.067 15.9398V15.3037C42.067 14.8639 42.1573 14.4615 42.3379 14.0963C42.5225 13.7272 42.7895 13.4327 43.1389 13.2128C43.4923 12.989 43.9203 12.8771 44.4229 12.8771C44.9333 12.8771 45.3613 12.989 45.7068 13.2128C46.0524 13.4327 46.3135 13.7272 46.4902 14.0963C46.6669 14.4615 46.7552 14.8639 46.7552 15.3037V15.9398C46.7552 16.3795 46.6649 16.784 46.4843 17.1531C46.3076 17.5182 46.0445 17.8127 45.6951 18.0365C45.3495 18.2564 44.9255 18.3663 44.4229 18.3663C43.9125 18.3663 43.4825 18.2564 43.1331 18.0365C42.7836 17.8127 42.5186 17.5182 42.3379 17.1531C42.1573 16.784 42.067 16.3795 42.067 15.9398ZM43.2685 15.3037V15.9398C43.2685 16.3049 43.3549 16.6328 43.5277 16.9234C43.7004 17.21 43.9988 17.3533 44.4229 17.3533C44.8352 17.3533 45.1257 17.21 45.2946 16.9234C45.4673 16.6328 45.5537 16.3049 45.5537 15.9398V15.3037C45.5537 14.9385 45.4713 14.6126 45.3064 14.326C45.1414 14.0354 44.847 13.8902 44.4229 13.8902C44.0106 13.8902 43.7142 14.0354 43.5336 14.326C43.3569 14.6126 43.2685 14.9385 43.2685 15.3037ZM36.0595 9.03706V8.40097C36.0595 7.96121 36.1498 7.55875 36.3305 7.19359C36.515 6.8245 36.782 6.53001 37.1315 6.31013C37.4848 6.08632 37.9128 5.97442 38.4154 5.97442C38.9259 5.97442 39.3538 6.08632 39.6994 6.31013C40.0449 6.53001 40.306 6.8245 40.4827 7.19359C40.6594 7.55875 40.7477 7.96121 40.7477 8.40097V9.03706C40.7477 9.47682 40.6574 9.88125 40.4768 10.2503C40.3001 10.6155 40.037 10.91 39.6876 11.1338C39.3421 11.3537 38.918 11.4636 38.4154 11.4636C37.905 11.4636 37.475 11.3537 37.1256 11.1338C36.7761 10.91 36.5111 10.6155 36.3305 10.2503C36.1498 9.88125 36.0595 9.47682 36.0595 9.03706ZM37.261 8.40097V9.03706C37.261 9.40222 37.3474 9.73008 37.5202 10.0206C37.6929 10.3073 37.9914 10.4506 38.4154 10.4506C38.8277 10.4506 39.1182 10.3073 39.2871 10.0206C39.4599 9.73008 39.5462 9.40222 39.5462 9.03706V8.40097C39.5462 8.03581 39.4638 7.70992 39.2989 7.42328C39.134 7.13273 38.8395 6.98745 38.4154 6.98745C38.0031 6.98745 37.7067 7.13273 37.5261 7.42328C37.3494 7.70992 37.261 8.03581 37.261 8.40097ZM36.5072 18.2014L44.7998 6.13933H46.1427L37.85 18.2014H36.5072Z" fill="#42BD53"/>
<path d="M58.8031 6.23168L62.8847 10.3132C63.0125 10.441 63.0843 10.6144 63.0843 10.7951C63.0843 10.9758 63.0125 11.1491 62.8847 11.2769C62.7569 11.4047 62.5836 11.4765 62.4028 11.4765C62.2221 11.4765 62.0488 11.4047 61.921 11.2769L59.0021 8.35693L59.0021 16.6901C59.0021 16.8705 58.9304 17.0435 58.8029 17.1711C58.6753 17.2987 58.5023 17.3704 58.3218 17.3704C58.1414 17.3704 57.9684 17.2987 57.8408 17.1711C57.7132 17.0435 57.6416 16.8705 57.6416 16.6901L57.6416 8.35693L54.721 11.2758C54.5932 11.4036 54.4199 11.4754 54.2391 11.4754C54.0584 11.4754 53.8851 11.4036 53.7573 11.2758C53.6295 11.148 53.5577 10.9747 53.5577 10.794C53.5577 10.6132 53.6295 10.4399 53.7573 10.3121L57.8389 6.23055C57.9021 6.16712 57.9773 6.11682 58.0601 6.08253C58.1429 6.04824 58.2316 6.03065 58.3212 6.03075C58.4108 6.03086 58.4995 6.04866 58.5822 6.08315C58.6649 6.11763 58.74 6.16811 58.8031 6.23168Z" fill="#42BD53"/>
</svg>
