<svg width="21" height="21" viewBox="0 0 21 21" fill="none" xmlns="http://www.w3.org/2000/svg">
<path d="M12.5646 10.322C12.5646 11.2412 11.8195 11.9864 10.9002 11.9864C9.98102 11.9864 9.23584 11.2412 9.23584 10.322C9.23584 9.40277 9.98102 8.6576 10.9002 8.6576C11.8195 8.6576 12.5646 9.40277 12.5646 10.322Z" stroke="#16151C" stroke-width="1.2483"/>
<path d="M12.5646 3.6644C12.5646 4.58362 11.8195 5.3288 10.9002 5.3288C9.98102 5.3288 9.23584 4.58362 9.23584 3.6644C9.23584 2.74518 9.98102 2 10.9002 2C11.8195 2 12.5646 2.74518 12.5646 3.6644Z" stroke="#16151C" stroke-width="1.2483"/>
<path d="M12.5646 16.9796C12.5646 17.8988 11.8195 18.644 10.9002 18.644C9.98102 18.644 9.23584 17.8988 9.23584 16.9796C9.23584 16.0604 9.98102 15.3152 10.9002 15.3152C11.8195 15.3152 12.5646 16.0604 12.5646 16.9796Z" stroke="#16151C" stroke-width="1.2483"/>
</svg>
